<svg width="20" height="18" viewBox="0 0 20 18" fill="none" xmlns="http://www.w3.org/2000/svg">
<path d="M18.8758 7.43165L18.907 7.43848H5.52391L9.73106 3.22206C9.93708 3.01621 10.0501 2.73734 10.0501 2.44466C10.0501 2.15198 9.93708 1.87507 9.73106 1.66873L9.07643 1.01377C8.87057 0.807913 8.59626 0.694092 8.30374 0.694092C8.01106 0.694092 7.73659 0.8071 7.53074 1.01295L0.318866 8.22417C0.112199 8.43084 -0.000808652 8.70613 4.35632e-06 8.99897C-0.000808652 9.29344 0.112199 9.56889 0.318866 9.77523L7.53074 16.9871C7.73659 17.1928 8.0109 17.306 8.30374 17.306C8.59626 17.306 8.87057 17.1926 9.07643 16.9871L9.73106 16.3321C9.93708 16.1266 10.0501 15.8521 10.0501 15.5595C10.0501 15.2669 9.93708 15.0069 9.73106 14.8012L5.47643 10.5612H18.8907C19.4935 10.5612 20 10.0417 20 9.4393V8.51295C20 7.91052 19.4785 7.43165 18.8758 7.43165Z" fill="#2A4363"/>
</svg>
