<svg width="27" height="21" viewBox="0 0 27 21" fill="none" xmlns="http://www.w3.org/2000/svg">
<path d="M26.6146 9.57353C26.6031 8.41872 25.7359 7.48217 24.6721 7.48217C24.4438 7.48217 24.2284 7.53276 24.0232 7.61225C23.9871 6.58609 23.1358 5.76225 22.0879 5.76225C21.7627 5.76225 21.4621 5.84897 21.1918 5.98772C20.8594 5.40238 20.2306 5.00201 19.5037 5.00201C19.2782 5.00201 19.0643 5.04681 18.8619 5.11763V2.15907C18.8619 1.10254 17.9904 0.242584 16.9194 0.242584C15.8485 0.242584 14.9769 1.10254 14.9769 2.15907L14.9784 10.0519C13.8727 10.1025 12.9997 10.7283 12.7526 11.7328C12.4274 13.0524 12.5344 14.5425 13.0691 16.1614C13.4724 17.3783 14.4089 18.6039 15.9323 19.9032C16.0552 20.0072 16.204 20.0593 16.3543 20.0593C16.5379 20.0593 16.72 19.9812 16.8501 19.8309C17.0842 19.5577 17.051 19.1473 16.7778 18.9146C15.4582 17.7886 14.6272 16.7249 14.3049 15.7522C13.8409 14.3502 13.747 13.1376 14.0158 12.0437C14.1256 11.5957 14.526 11.3904 14.9784 11.3528V12.5192C14.9784 12.8776 15.2689 13.1696 15.6288 13.1696C15.9887 13.1696 16.2792 12.8791 16.2792 12.5192V2.16066C16.2792 1.82101 16.5668 1.54494 16.9209 1.54494C17.275 1.54494 17.5626 1.821 17.5626 2.16066V9.51885C17.5626 9.87729 17.8531 10.1692 18.213 10.1692C18.5729 10.1692 18.8634 9.87873 18.8634 9.51885V6.91875C18.8634 6.5791 19.151 6.30303 19.5051 6.30303C19.8592 6.30303 20.1468 6.57909 20.1468 6.91875V9.87298C20.1468 10.2329 20.4374 10.5234 20.7972 10.5234C21.1571 10.5234 21.4476 10.2329 21.4476 9.87298V7.67899C21.4476 7.33934 21.7352 7.06327 22.0893 7.06327C22.4434 7.06327 22.7311 7.33933 22.7311 7.67899V10.4612C22.7311 10.8211 23.0216 11.1116 23.3815 11.1116C23.7413 11.1116 24.0318 10.8211 24.0318 10.4612V9.59981C24.0318 9.15755 24.3267 8.78466 24.6736 8.78466C25.0219 8.78466 25.3153 9.15755 25.3153 9.59981C25.3153 9.61571 25.3153 9.6316 25.3168 9.6475C25.3211 9.70243 25.7041 15.2264 23.9148 19.1387C23.7659 19.4654 23.909 19.8513 24.2356 20.0001C24.3224 20.0406 24.4149 20.058 24.5059 20.058C24.7516 20.058 24.9887 19.9163 25.0985 19.6793C26.9817 15.5556 26.6464 10.0334 26.6147 9.57386L26.6146 9.57353Z" fill="black"/>
<path d="M7.66828 10.4408L7.33152 10.7761V8.73245C7.33152 8.37401 7.04102 8.08206 6.68114 8.08206C6.32125 8.08206 6.03075 8.37401 6.03075 8.73245V10.7761L5.69399 10.4408C5.43962 10.1864 5.0277 10.1864 4.77477 10.4408C4.52039 10.6952 4.52039 11.1071 4.77477 11.36L6.22006 12.8053C6.28076 12.866 6.35303 12.9137 6.43252 12.947C6.43541 12.9484 6.43975 12.9498 6.44264 12.9498C6.51635 12.9787 6.59584 12.9961 6.67967 12.9961C6.76349 12.9961 6.84299 12.9787 6.9167 12.9498C6.91959 12.9484 6.92392 12.9484 6.92681 12.947C7.00775 12.9137 7.08002 12.866 7.13928 12.8053L8.58457 11.36C8.83894 11.1056 8.83894 10.6952 8.58457 10.4408C8.33308 10.1864 7.9226 10.1864 7.66823 10.4408H7.66828Z" fill="black"/>
<path d="M5.69543 2.97423L6.03219 2.63891V4.68257C6.03219 5.04101 6.32269 5.33296 6.68257 5.33296C7.04246 5.33296 7.33296 5.04101 7.33296 4.68257L7.33151 2.63747L7.66827 2.97278C7.79546 3.09997 7.96167 3.16356 8.12788 3.16356C8.2941 3.16356 8.46031 3.09997 8.5875 2.97278C8.84187 2.71841 8.84187 2.30649 8.5875 2.05356L7.14221 0.60826C7.0815 0.547558 7.00923 0.499862 6.92974 0.466621C6.92685 0.465176 6.92252 0.465176 6.91963 0.46373C6.84591 0.434824 6.76642 0.41748 6.6826 0.41748C6.59877 0.41748 6.51928 0.434824 6.44557 0.46373C6.44268 0.465176 6.43834 0.465176 6.43545 0.466621C6.35451 0.499863 6.28225 0.547558 6.22299 0.60826L4.7777 2.05356C4.52332 2.30793 4.52332 2.71985 4.7777 2.97278C5.02918 3.22861 5.4411 3.22861 5.69548 2.97423L5.69543 2.97423Z" fill="black"/>
<path d="M2.61253 7.45048H4.65475C5.01463 7.45048 5.30513 7.15997 5.30513 6.8001C5.30513 6.44022 5.01462 6.14971 4.65475 6.14971H2.61109L2.9464 5.81295C3.20078 5.55858 3.20078 5.14666 2.9464 4.89372C2.69203 4.63935 2.2801 4.63935 2.02717 4.89372L0.581877 6.33902C0.551525 6.36937 0.524064 6.40261 0.500939 6.4373C0.496603 6.44452 0.492268 6.4532 0.487932 6.46042C0.470588 6.48933 0.453244 6.51679 0.440235 6.54858C0.435899 6.56015 0.433008 6.57316 0.428672 6.58472C0.418555 6.61218 0.408438 6.63964 0.402656 6.66999C0.393985 6.71191 0.389648 6.75527 0.389648 6.79863C0.389648 6.84199 0.393985 6.88535 0.402656 6.92726C0.408438 6.95328 0.41711 6.97785 0.425781 7.00242C0.430117 7.01687 0.433008 7.03277 0.440235 7.04722C0.451797 7.07612 0.467696 7.10214 0.483595 7.12816C0.489376 7.13827 0.493712 7.14839 0.499494 7.15851C0.522619 7.19464 0.55008 7.22643 0.580431 7.25679L2.02573 8.70208C2.15291 8.82927 2.31912 8.89286 2.48534 8.89286C2.65156 8.89286 2.81776 8.82926 2.94495 8.70208C3.19933 8.4477 3.19933 8.03578 2.94495 7.78285L2.61253 7.45048Z" fill="black"/>
<path d="M12.7804 7.25807C12.8396 7.19881 12.8873 7.12655 12.9206 7.04706C12.922 7.04272 12.922 7.03983 12.9235 7.03694C12.9524 6.96323 12.9697 6.88374 12.9697 6.79991C12.9697 6.71608 12.9524 6.63659 12.9235 6.56288C12.922 6.55999 12.922 6.55565 12.9206 6.55276C12.8873 6.47182 12.8396 6.39956 12.7789 6.3403L11.3336 4.895C11.0793 4.64063 10.6673 4.64063 10.4144 4.895C10.16 5.14938 10.16 5.5613 10.4144 5.81423L10.7497 6.14955H8.70751C8.34763 6.14955 8.05713 6.4415 8.05713 6.79993C8.05713 7.15837 8.34764 7.45032 8.70751 7.45032H10.7497L10.4144 7.78708C10.16 8.04145 10.16 8.45338 10.4144 8.70631C10.5416 8.8335 10.7078 8.89709 10.874 8.89709C11.0402 8.89709 11.2065 8.83349 11.3336 8.70631L12.7789 7.25953L12.7804 7.25809L12.7804 7.25807Z" fill="black"/>
</svg>
