<svg width="208" height="36" viewBox="0 0 208 36" fill="none" xmlns="http://www.w3.org/2000/svg">
<path d="M50.6875 14.6454C52.0702 14.6454 53.2765 15.1886 54.3065 16.275C55.3365 17.3473 55.8515 18.73 55.8515 20.4231C55.8515 22.1162 55.3224 23.5342 54.2642 24.677C53.206 25.8199 51.9997 26.3913 50.6452 26.3913C49.3048 26.3913 48.1902 25.834 47.3013 24.7194V26.222H44.1267V10.5184H47.3013V16.1057C48.1761 15.1322 49.3048 14.6454 50.6875 14.6454ZM47.259 20.5501C47.259 21.4672 47.5129 22.222 48.0209 22.8146C48.5429 23.3931 49.1708 23.6823 49.9044 23.6823C50.6381 23.6823 51.2801 23.3931 51.8304 22.8146C52.3806 22.222 52.6557 21.4672 52.6557 20.5501C52.6557 19.633 52.3877 18.864 51.8515 18.2432C51.3154 17.6224 50.6734 17.312 49.9256 17.312C49.1778 17.312 48.5429 17.6224 48.0209 18.2432C47.5129 18.8499 47.259 19.6189 47.259 20.5501Z" fill="#2A4363"/>
<path d="M60.7618 20.5289C60.7618 21.4601 61.0228 22.222 61.5449 22.8146C62.081 23.3931 62.7583 23.6823 63.5766 23.6823C64.4091 23.6823 65.0863 23.3931 65.6083 22.8146C66.1445 22.222 66.4126 21.4601 66.4126 20.5289C66.4126 19.5977 66.1445 18.8358 65.6083 18.2432C65.0863 17.6507 64.4091 17.3544 63.5766 17.3544C62.7583 17.3544 62.081 17.6507 61.5449 18.2432C61.0228 18.8358 60.7618 19.5977 60.7618 20.5289ZM69.6083 20.5289C69.6083 22.1797 69.0369 23.5695 67.894 24.6982C66.7512 25.827 65.312 26.3913 63.5766 26.3913C61.8553 26.3913 60.4232 25.827 59.2804 24.6982C58.1375 23.5695 57.5661 22.1797 57.5661 20.5289C57.5661 18.8782 58.1375 17.4884 59.2804 16.3597C60.4232 15.2168 61.8553 14.6454 63.5766 14.6454C65.312 14.6454 66.7512 15.2168 67.894 16.3597C69.0369 17.4884 69.6083 18.8782 69.6083 20.5289Z" fill="#2A4363"/>
<path d="M74.2634 14.8359L76.2104 17.8835L78.221 14.8359H81.9458L78.0305 20.402L82.094 26.222H78.3057L76.0835 23.0898L73.9247 26.222H70.2634L74.2422 20.4231L70.475 14.8359H74.2634Z" fill="#2A4363"/>
<path d="M92.3183 22.6876C92.3183 23.8023 91.9021 24.6982 91.0696 25.3755C90.2513 26.0527 89.2072 26.3913 87.9374 26.3913C87.0908 26.3913 86.209 26.2432 85.2919 25.9469C84.3748 25.6365 83.5494 25.185 82.8157 24.5924L84.2125 22.603C85.3977 23.5201 86.6605 23.9786 88.0009 23.9786C88.41 23.9786 88.7345 23.901 88.9744 23.7458C89.2142 23.5765 89.3342 23.3578 89.3342 23.0898C89.3342 22.8217 89.1649 22.5748 88.8262 22.349C88.5017 22.1233 88.022 21.9116 87.3871 21.7141C86.7663 21.5166 86.2866 21.3473 85.948 21.2062C85.6234 21.0651 85.2495 20.8605 84.8263 20.5924C83.9656 20.0563 83.5353 19.2662 83.5353 18.2221C83.5353 17.1639 83.9586 16.3032 84.8051 15.6401C85.6517 14.977 86.7451 14.6454 88.0855 14.6454C89.4259 14.6454 90.7663 15.0969 92.1066 15.9999L90.9215 18.1163C89.9338 17.439 88.9462 17.1004 87.9585 17.1004C86.985 17.1004 86.4982 17.3685 86.4982 17.9046C86.4982 18.2009 86.6534 18.4337 86.9638 18.603C87.2742 18.7723 87.7892 18.9699 88.5088 19.1956C89.2284 19.4214 89.7363 19.5977 90.0326 19.7247C90.343 19.8376 90.7098 20.021 91.1331 20.275C91.9232 20.7547 92.3183 21.5589 92.3183 22.6876Z" fill="#2A4363"/>
<path d="M97.9168 20.0845V26.222H94.7422V10.5184H97.9168V16.1057C98.8762 15.1322 99.9485 14.6454 101.134 14.6454C102.333 14.6454 103.342 15.0687 104.16 15.9152C104.978 16.7618 105.388 17.8905 105.388 19.3014V26.222H102.213V19.9998C102.213 18.2503 101.571 17.3755 100.287 17.3755C99.6522 17.3755 99.0949 17.6083 98.6152 18.0739C98.1496 18.5254 97.9168 19.1956 97.9168 20.0845Z" fill="#2A4363"/>
<path d="M117.931 26.222H114.947V24.8464C114.128 25.8763 113.113 26.3913 111.899 26.3913C110.7 26.3913 109.691 26.0456 108.873 25.3543C108.054 24.6488 107.645 23.7176 107.645 22.5607C107.645 21.3896 108.068 20.5148 108.915 19.9363C109.762 19.3579 110.919 19.0686 112.386 19.0686H114.756V19.0051C114.756 17.7917 114.114 17.185 112.83 17.185C112.28 17.185 111.695 17.2979 111.074 17.5237C110.467 17.7353 109.952 18.0034 109.529 18.3279L108.111 16.275C109.606 15.1886 111.314 14.6454 113.232 14.6454C114.615 14.6454 115.744 14.9911 116.619 15.6824C117.493 16.3738 117.931 17.4672 117.931 18.9628V26.222ZM114.735 21.8834V21.3332H112.746C111.476 21.3332 110.841 21.7282 110.841 22.5183C110.841 22.9275 110.989 23.245 111.285 23.4707C111.596 23.6823 112.033 23.7882 112.598 23.7882C113.162 23.7882 113.656 23.6189 114.079 23.2802C114.516 22.9275 114.735 22.4619 114.735 21.8834Z" fill="#2A4363"/>
<path d="M125.375 26.3913C124.035 26.3913 122.836 25.8199 121.777 24.677C120.719 23.5342 120.19 22.1162 120.19 20.4231C120.19 18.73 120.705 17.3473 121.735 16.275C122.765 15.1886 123.971 14.6454 125.354 14.6454C126.737 14.6454 127.866 15.1322 128.74 16.1057V10.5184H131.915V26.222H128.74V24.7194C127.851 25.834 126.73 26.3913 125.375 26.3913ZM123.386 20.5501C123.386 21.4672 123.661 22.222 124.211 22.8146C124.761 23.3931 125.403 23.6823 126.137 23.6823C126.871 23.6823 127.492 23.3931 128 22.8146C128.522 22.222 128.783 21.4672 128.783 20.5501C128.783 19.6189 128.522 18.8499 128 18.2432C127.492 17.6224 126.864 17.312 126.116 17.312C125.368 17.312 124.726 17.6224 124.19 18.2432C123.654 18.864 123.386 19.633 123.386 20.5501Z" fill="#2A4363"/>
<path d="M137.46 20.5289C137.46 21.4601 137.721 22.222 138.243 22.8146C138.779 23.3931 139.457 23.6823 140.275 23.6823C141.107 23.6823 141.785 23.3931 142.307 22.8146C142.843 22.222 143.111 21.4601 143.111 20.5289C143.111 19.5977 142.843 18.8358 142.307 18.2432C141.785 17.6507 141.107 17.3544 140.275 17.3544C139.457 17.3544 138.779 17.6507 138.243 18.2432C137.721 18.8358 137.46 19.5977 137.46 20.5289ZM146.307 20.5289C146.307 22.1797 145.735 23.5695 144.592 24.6982C143.449 25.827 142.01 26.3913 140.275 26.3913C138.554 26.3913 137.121 25.827 135.979 24.6982C134.836 23.5695 134.264 22.1797 134.264 20.5289C134.264 18.8782 134.836 17.4884 135.979 16.3597C137.121 15.2168 138.554 14.6454 140.275 14.6454C142.01 14.6454 143.449 15.2168 144.592 16.3597C145.735 17.4884 146.307 18.8782 146.307 20.5289Z" fill="#2A4363"/>
<path d="M154.384 26.222H151.103L147.23 14.8359H150.511L152.733 21.7141L154.955 14.8359H158.024L160.246 21.7141L162.468 14.8359H165.77L161.897 26.222H158.595L156.5 20.021L154.384 26.222Z" fill="#2A4363"/>
<path d="M175.961 22.6876C175.961 23.8023 175.545 24.6982 174.712 25.3755C173.894 26.0527 172.85 26.3913 171.58 26.3913C170.733 26.3913 169.852 26.2432 168.935 25.9469C168.017 25.6365 167.192 25.185 166.458 24.5924L167.855 22.603C169.04 23.5201 170.303 23.9786 171.644 23.9786C172.053 23.9786 172.377 23.901 172.617 23.7458C172.857 23.5765 172.977 23.3578 172.977 23.0898C172.977 22.8217 172.808 22.5748 172.469 22.349C172.144 22.1233 171.665 21.9116 171.03 21.7141C170.409 21.5166 169.929 21.3473 169.591 21.2062C169.266 21.0651 168.892 20.8605 168.469 20.5924C167.608 20.0563 167.178 19.2662 167.178 18.2221C167.178 17.1639 167.601 16.3032 168.448 15.6401C169.294 14.977 170.388 14.6454 171.728 14.6454C173.069 14.6454 174.409 15.0969 175.749 15.9999L174.564 18.1163C173.576 17.439 172.589 17.1004 171.601 17.1004C170.628 17.1004 170.141 17.3685 170.141 17.9046C170.141 18.2009 170.296 18.4337 170.606 18.603C170.917 18.7723 171.432 18.9699 172.151 19.1956C172.871 19.4214 173.379 19.5977 173.675 19.7247C173.986 19.8376 174.352 20.021 174.776 20.275C175.566 20.7547 175.961 21.5589 175.961 22.6876Z" fill="#2A4363"/>
<path d="M178.596 25.8622C178.244 25.4954 178.067 25.0509 178.067 24.5289C178.067 24.0069 178.244 23.5695 178.596 23.2167C178.963 22.8499 179.408 22.6665 179.93 22.6665C180.452 22.6665 180.889 22.8499 181.242 23.2167C181.609 23.5695 181.792 24.0069 181.792 24.5289C181.792 25.0509 181.609 25.4954 181.242 25.8622C180.889 26.215 180.452 26.3913 179.93 26.3913C179.408 26.3913 178.963 26.215 178.596 25.8622Z" fill="#2A4363"/>
<path d="M189.942 23.5765C191 23.5765 191.953 23.0474 192.799 21.9892L194.683 24.1056C193.215 25.6294 191.628 26.3913 189.921 26.3913C188.214 26.3913 186.768 25.8552 185.582 24.7829C184.411 23.6965 183.826 22.2855 183.826 20.5501C183.826 18.8006 184.418 17.3826 185.604 16.2962C186.803 15.1956 188.221 14.6454 189.857 14.6454C190.676 14.6454 191.501 14.8147 192.334 15.1533C193.18 15.4919 193.921 15.9928 194.556 16.6559L192.905 18.8147C192.538 18.3773 192.087 18.0387 191.551 17.7988C191.029 17.5589 190.507 17.439 189.984 17.439C189.152 17.439 188.432 17.7141 187.826 18.2644C187.233 18.8006 186.937 19.5554 186.937 20.5289C186.937 21.4884 187.233 22.2362 187.826 22.7723C188.432 23.3085 189.138 23.5765 189.942 23.5765Z" fill="#2A4363"/>
<path d="M199.154 20.5289C199.154 21.4601 199.415 22.222 199.937 22.8146C200.473 23.3931 201.15 23.6823 201.968 23.6823C202.801 23.6823 203.478 23.3931 204 22.8146C204.536 22.222 204.804 21.4601 204.804 20.5289C204.804 19.5977 204.536 18.8358 204 18.2432C203.478 17.6507 202.801 17.3544 201.968 17.3544C201.15 17.3544 200.473 17.6507 199.937 18.2432C199.415 18.8358 199.154 19.5977 199.154 20.5289ZM208 20.5289C208 22.1797 207.429 23.5695 206.286 24.6982C205.143 25.827 203.704 26.3913 201.968 26.3913C200.247 26.3913 198.815 25.827 197.672 24.6982C196.529 23.5695 195.958 22.1797 195.958 20.5289C195.958 18.8782 196.529 17.4884 197.672 16.3597C198.815 15.2168 200.247 14.6454 201.968 14.6454C203.704 14.6454 205.143 15.2168 206.286 16.3597C207.429 17.4884 208 18.8782 208 20.5289Z" fill="#2A4363"/>
<g filter="url(#filter0_d)">
<rect x="4" y="4" width="22.3039" height="22.3039" fill="#2A4363"/>
</g>
<g filter="url(#filter1_d)">
<rect x="9.73828" y="9.66858" width="22.3039" height="22.3039" fill="#2C5280"/>
</g>
<defs>
<filter id="filter0_d" x="0" y="0" width="30.3039" height="30.3039" filterUnits="userSpaceOnUse" color-interpolation-filters="sRGB">
<feFlood flood-opacity="0" result="BackgroundImageFix"/>
<feColorMatrix in="SourceAlpha" type="matrix" values="0 0 0 0 0 0 0 0 0 0 0 0 0 0 0 0 0 0 127 0"/>
<feOffset/>
<feGaussianBlur stdDeviation="2"/>
<feColorMatrix type="matrix" values="0 0 0 0 0 0 0 0 0 0 0 0 0 0 0 0 0 0 0.25 0"/>
<feBlend mode="normal" in2="BackgroundImageFix" result="effect1_dropShadow"/>
<feBlend mode="normal" in="SourceGraphic" in2="effect1_dropShadow" result="shape"/>
</filter>
<filter id="filter1_d" x="5.73828" y="5.66858" width="30.3039" height="30.3039" filterUnits="userSpaceOnUse" color-interpolation-filters="sRGB">
<feFlood flood-opacity="0" result="BackgroundImageFix"/>
<feColorMatrix in="SourceAlpha" type="matrix" values="0 0 0 0 0 0 0 0 0 0 0 0 0 0 0 0 0 0 127 0"/>
<feOffset/>
<feGaussianBlur stdDeviation="2"/>
<feColorMatrix type="matrix" values="0 0 0 0 0 0 0 0 0 0 0 0 0 0 0 0 0 0 0.25 0"/>
<feBlend mode="normal" in2="BackgroundImageFix" result="effect1_dropShadow"/>
<feBlend mode="normal" in="SourceGraphic" in2="effect1_dropShadow" result="shape"/>
</filter>
</defs>
</svg>
