<svg width="17" height="15" viewBox="0 0 17 15" fill="none" xmlns="http://www.w3.org/2000/svg">
<path d="M16.7124 5.64585L13.2298 10.4108L8.64364 6.79364C8.02102 6.29381 7.90709 5.38146 8.36053 4.73456C8.8416 4.08766 9.71971 3.96929 10.3423 4.44041L10.6542 4.70469C10.4275 4.38065 10.1444 4.11638 9.83363 3.85211C8.89913 3.11673 7.73903 2.79269 6.57781 2.96965C5.41658 3.1466 4.39805 3.76363 3.69032 4.73457C2.98253 5.70551 2.67065 6.91084 2.84097 8.11734C3.01128 9.32384 3.60516 10.3821 4.53966 11.1174C5.95413 12.2055 7.82323 12.3526 9.35149 11.4702C10.0305 11.0875 10.9086 11.3231 11.2769 12.0585C11.6452 12.764 11.4185 13.6763 10.7107 14.0589C9.6346 14.6771 8.41698 15 7.22807 15C5.6997 15 4.14268 14.5002 2.86866 13.4706C1.34029 12.2641 0.349391 10.4991 0.0662759 8.52856C-0.188086 6.55797 0.292989 4.5875 1.45309 2.96965C3.85956 -0.324575 8.3894 -0.971418 11.56 1.49888C12.6073 2.32275 13.4003 3.41088 13.8813 4.6175L14.4476 3.85223C14.9286 3.20533 15.8067 3.08696 16.4294 3.55808C17.052 4.0579 17.1935 4.99896 16.7125 5.64589L16.7124 5.64585Z" fill="#CAD4DE"/>
</svg>
